# xmcd
#
# Track frame offsets: 
#        150
#        13343
#        29942
#        49579
#        69473
#        86567
#        107506
#        124015
#        143930
#        160627
#        174343
#        189147
#        197617
#        207181
#        227222
#        245786
#        266941
#        284571
#        295897
#        314391
#        332481
#        343299
#
# Disc length: 4786 seconds
#
# Revision: 1
# Processed by: cddbd v1.5.2PL0 Copyright (c) Steve Scherf et al.
# Submitted via: ExactAudioCopyFreeDBPlugin 1.0
#
DISCID=5212b016
DTITLE=Enya - 2009 - Greatest Hits Cd 2
DYEAR=2009
DGENRE=New Age
TTITLE0=The Sun in the Stream
TTITLE1=Song Of The Sandman (Lullaby)
TTITLE2=Exile
TTITLE3=Triad  St. Patrick, Cu Chulainn, Oisin
TTITLE4=Wild Child
TTITLE5=Water Shows The Hidden Heart
TTITLE6=O Come, O Come, Emmanuel
TTITLE7=How Can I Keep From Singing
TTITLE8=Lazy Days
TTITLE9=My! My! Time Flies!
TTITLE10=Long Long Journey
TTITLE11=Ebudae
TTITLE12=Lothlorien
TTITLE13=Isobella
TTITLE14=Flora's Secret
TTITLE15=Sumiregusa
TTITLE16=Marble Halls
TTITLE17=Fallen Embers
TTITLE18=Afer Ventus
TTITLE19=Angeles
TTITLE20=Tempus Vernum
TTITLE21=Boadicea
EXTD=YEAR: 2009
EXTT0=
EXTT1=
EXTT2=
EXTT3=
EXTT4=
EXTT5=
EXTT6=
EXTT7=
EXTT8=
EXTT9=
EXTT10=
EXTT11=
EXTT12=
EXTT13=
EXTT14=
EXTT15=
EXTT16=
EXTT17=
EXTT18=
EXTT19=
EXTT20=
EXTT21=
PLAYORDER=
